<svg width="20" height="20" viewBox="0 0 20 20" fill="none" xmlns="http://www.w3.org/2000/svg">
<path d="M18.423 10.3814C18.3728 10.5031 18.2995 10.6138 18.207 10.7074L10.707 18.2074C10.5184 18.3896 10.2658 18.4904 10.0036 18.4881C9.7414 18.4858 9.49059 18.3807 9.30518 18.1952C9.11977 18.0098 9.0146 17.759 9.01233 17.4968C9.01005 17.2346 9.11084 16.982 9.293 16.7934L15.086 10.9994H2.5C2.23478 10.9994 1.98043 10.8941 1.79289 10.7065C1.60536 10.519 1.5 10.2646 1.5 9.99943C1.5 9.73421 1.60536 9.47986 1.79289 9.29232C1.98043 9.10479 2.23478 8.99943 2.5 8.99943H15.086L9.293 3.20643C9.11084 3.01783 9.01005 2.76523 9.01233 2.50303C9.0146 2.24083 9.11977 1.99002 9.30518 1.80461C9.49059 1.6192 9.7414 1.51403 10.0036 1.51176C10.2658 1.50948 10.5184 1.61027 10.707 1.79243L18.207 9.29243C18.2995 9.38605 18.3728 9.49678 18.423 9.61843C18.5238 9.86277 18.5238 10.1371 18.423 10.3814Z" fill="#1A40C4"/>
</svg>
